#!OML:ASF F:\VICON\USERDATA\INSTALL\rory3\rory3.ASF
:FULLY-SPECIFIED
:DEGREES
64
root -0.20725553288829768 17.43883017235314 39.06221223895951 0.5461765645511552 5.4059844046475725 -2.5091334837165538
lfemur -22.2223191848359 -0.3486729359104289 -23.872034175951097
ltibia 39.090032546132804
lfoot -10.73937304467393 -7.653990564917657
ltoes 1.516311245900944
rfemur -2.5520181622655578 -1.3864682281216631 26.884783327112043
rtibia 95.45507253496953
rfoot 16.010807751792264 -10.621038595672932
rtoes 14.19011075095209
lowerback 15.416475518794536 2.3660087571273585 2.2284282493909484
upperback -0.5349329114782658 3.623898533302448 0.5126782763925575
thorax -9.30233395018445 1.6147092574219064 -1.503294367645895
lowerneck -19.46738479471509 -4.789166319100307 -2.33824350006044
upperneck 14.474393526683201 -6.6621959326663305 4.103807162349714
head 7.9093353305323975 -2.8704148435567935 0.9862440510838522
lclavicle -1.180593660079902e-16 2.951954342026565e-15
lhumerus -60.755857239487824 -8.323151529141036 98.88873341658551
lradius 112.97451829045067
lwrist 31.37755059270635
lhand -25.36834634691299 3.0700964560447144
lfingers 7.12502
lthumb 1.155752762335252 33.05781478136582
rclavicle -1.180593660079902e-16 2.951954342026565e-15
rhumerus -43.65233968870769 11.366786734700579 -99.00881064758705
rradius 105.0483984207759
rwrist -8.095877990869052
rhand -17.02414086398001 38.44421547206031
rfingers 7.12502
rthumb 9.211757699232855 9.231180245607623
65
root -0.25363198462353964 17.188408650626975 39.49238471580807 0.4246160392131446 5.34404370582113 -1.495293289473711
lfemur -20.48533436403615 -0.9374833169019126 -25.243805294495772
ltibia 42.963294974441155
lfoot -15.313837401303958 -4.872854449998556
ltoes 2.8261015786651686
rfemur -8.191109588047537 -3.1124969825968063 24.298152028175817
rtibia 102.41854647500003
rfoot 13.957829289834006 -10.088399316995936
rtoes 15.001416393585412
lowerback 15.899128050330646 2.2288552473127576 0.8207139816515322
upperback -0.29336738808085716 3.1673424927140434 0.1437226588396392
thorax -9.463632841871217 1.4544055228848292 -0.8923699105096895
lowerneck -19.86563725017128 -4.734157175501004 -2.2447781881573503
upperneck 14.350196730474742 -6.627957903830572 4.2246097765414525
head 7.913210322973851 -2.8283763277478884 1.0228596049451368
lclavicle -4.3104635090154617e-16 2.724980215390747e-15
lhumerus -56.6600791295149 -10.728789058346164 99.61846371053306
lradius 111.80271035722764
lwrist 31.87525555569976
lhand -25.758028533906394 3.660219025020634
lfingers 7.12502
lthumb 0.7794062792734273 33.64927762665809
rclavicle -4.3104635090154617e-16 2.724980215390747e-15
rhumerus -44.9016915762606 9.608823386770784 -99.80288047453678
rradius 103.07939928536156
rwrist -7.671603835867417
rhand -17.063026950170265 38.286435007111685
rfingers 7.12502
rthumb 9.174186129266058 9.060286884044567
66
root -0.2866556333417446 16.970950373830505 39.83503088699934 0.556015061490323 5.064809969036249 -0.4974498323793952
lfemur -18.05339107521401 -1.5743269112900338 -26.55052185296207
ltibia 45.975663571891246
lfoot -19.39125773534232 -1.7131483753776182
ltoes 2.4698463746735424
rfemur -14.868859177195556 -4.565932103381117 21.948257622772854
rtibia 108.53574843740832
rfoot 11.89992390150929 -9.050000061146209
rtoes 15.561144410448557
lowerback 16.309895195450732 2.1017922356319563 -0.5390969316238274
upperback -0.1084940370245071 2.7201491919369447 -0.21337183814856164
thorax -9.615598060467956 1.2982038308436887 -0.27706999561751167
lowerneck -20.3675618730498 -4.64533698392455 -2.1536132652241826
upperneck 14.199829390580518 -6.533896803657186 4.314217250994947
head 7.920588881947325 -2.7617316241766265 1.0531314324308505
lclavicle -6.60047622511101e-16 2.5589103600284415e-15
lhumerus -51.95592834083631 -13.261996912079548 100.10468964531343
lradius 110.34086439473353
lwrist 32.25846106800022
lhand -26.012006100317517 4.017429875640691
lfingers 7.12502
lthumb 0.5341285043072178 34.0079073542052
rclavicle -6.60047622511101e-16 2.5589103600284415e-15
rhumerus -46.361833223210176 7.850114633587299 -100.48869009953646
rradius 101.49818128407473
rwrist -7.5719935744881575
rhand -17.03074662916992 38.169401804966384
rfingers 7.12502
rthumb 9.205318657428533 8.927875037627185
67
root -0.3062247241584794 16.80865188541405 39.71305361639264 0.8878667630512451 4.567998072441015 0.231425980330219
lfemur -15.467297495158927 -2.215555824003627 -27.622428051027534
ltibia 47.411725412428474
lfoot -22.703149894663923 1.121498468108567
ltoes 0.5091804906812207
rfemur -22.446674735453435 -5.7878275934702685 20.173427679264243
rtibia 112.70308358752568
rfoot 9.6703961449841 -7.934568724276939
rtoes 15.117802659024479
lowerback 16.588472532291238 1.9137885282572995 -1.697355437220572
upperback -0.029395596912966226 2.2295088190649253 -0.4745897517076769
thorax -9.768865348325068 1.117340138886044 0.25665273572329583
lowerneck -20.88706764422406 -4.508777167618795 -2.0977401272478797
upperneck 14.018416655455786 -6.357360694137545 4.334326649495586
head 7.916154086975401 -2.663623365709908 1.0716390795025266
lclavicle -1.2485249958644432e-15 2.132073852691938e-15
lhumerus -47.33890718023946 -15.645954023151635 100.27649045740172
lradius 108.89400495607349
lwrist 32.38129326941275
lhand -26.077694900373128 3.87706272962446
lfingers 7.12502
lthumb 0.4707013343512034 33.86959534226161
rclavicle -1.2485249958644432e-15 2.132073852691938e-15
rhumerus -48.147619871564814 6.3251515300978305 -101.05517395825309
rradius 100.51078307794558
rwrist -7.9482158007369
rhand -16.921848890827697 38.109359400474276
rfingers 7.12502
rthumb 9.31041267521322 8.853939235871175
68
root -0.3124580275959356 16.727510606889894 39.834423983072135 1.359926192705056 4.065686904406417 0.6241364492882213
lfemur -12.425297212059341 -2.708182951654471 -28.202071231078786
ltibia 47.7051543025775
lfoot -24.55234998814558 3.15902238737634
ltoes -2.5201730724535025
rfemur -29.72363566699907 -6.718455589500548 19.28260553053912
rtibia 114.97047302927282
rfoot 7.661275367173375 -6.957443677027814
rtoes 13.76808930193746
lowerback 16.73946390211332 1.6380026847139804 -2.4531470529215484
upperback -0.05046271001478431 1.7049732191840523 -0.5493239012901712
thorax -9.899417898029894 0.9089518760046983 0.7691659011320512
lowerneck -21.309622037125937 -4.290366807132467 -2.067363947200439
upperneck 13.864816349888281 -6.050166374514917 4.288839053153003
head 7.905528270082566 -2.513504239142712 1.0834679085760055
lclavicle -1.6532202573122643e-15 1.838513342749917e-15
lhumerus -42.94474919386175 -17.43129942880011 100.15250184358219
lradius 108.06355380421189
lwrist 32.39989594493511
lhand -25.95031537641912 3.29615822847423
lfingers 7.12502
lthumb 0.5937349183920696 33.292337891044184
rclavicle -1.6532202573122645e-15 1.838513342749917e-15
rhumerus -50.062331245141046 5.336363923804907 -101.42605837839717
rradius 100.34792212583244
rwrist -8.771284098807751
rhand -16.673056639085885 38.133063125225306
rfingers 7.12502
rthumb 9.550551962573438 8.860416971506377
